<svg id="Vrstva_2" data-name="Vrstva 2" xmlns="http://www.w3.org/2000/svg" viewBox="0 0 545.95 152.98"><defs><style>.cls-1{fill:#a25b00;}.cls-2{font-size:44px;}.cls-10,.cls-2{fill:#563409;font-family:MyriadPro-Bold, Myriad Pro;font-weight:700;}.cls-3{letter-spacing:0.03em;}.cls-4{letter-spacing:0.64em;}.cls-5{letter-spacing:-0.02em;}.cls-6{letter-spacing:0.02em;}.cls-7{letter-spacing:-0.05em;}.cls-8{letter-spacing:-0.02em;}.cls-9{letter-spacing:0.03em;}.cls-10{font-size:64.29px;}.cls-11{letter-spacing:0em;}.cls-12{letter-spacing:-0.04em;}.cls-13{letter-spacing:-0.01em;}.cls-14{letter-spacing:0em;}.cls-15{letter-spacing:0em;}</style></defs><title>tesarstvi-jihlavasvg</title><path class="cls-1" d="M69.15,7.8,1.84,75.11l2.65,2.65H9.13l6.48-6.48v67.94h7V94.44l22-22H124l5.27,5.27H134l2.65-2.65L76.32,14.83h32.12l62.92,62.93H176l2.64-2.65L118.37,14.83h28.44l62.93,62.93h4.64L217,75.11,156.74,14.83h13.11v-7H69.15M22.63,84.51v-12h12Zm0-19.05H21.42l47.8-47.79L117,65.46Z"/><text class="cls-2" transform="translate(199.32 39.92)">TESAŘS<tspan class="cls-3" x="150.08" y="0">T</tspan><tspan x="175.43" y="0">VÍ</tspan><tspan class="cls-4" x="0" y="42">	</tspan><tspan x="37.06" y="42">POK</tspan><tspan class="cls-5" x="121.19" y="42">R</tspan><tspan class="cls-6" x="146.45" y="42">Ý</tspan><tspan class="cls-7" x="173.82" y="42">V</tspan><tspan class="cls-8" x="199.42" y="42">A</tspan><tspan x="227.19" y="42">ČS</tspan><tspan class="cls-9" x="277.13" y="42">T</tspan><tspan x="302.47" y="42">VÍ</tspan></text><text class="cls-10" transform="translate(42.49 138.36)"><tspan class="cls-11">Št</tspan><tspan x="57.67" y="0">ěpán </tspan><tspan class="cls-12" x="214.67" y="0">K</tspan><tspan class="cls-13" x="251.51" y="0">v</tspan><tspan x="285.14" y="0">asnič</tspan><tspan class="cls-14" x="431.27" y="0">k</tspan><tspan class="cls-15" x="466.44" y="0">a</tspan></text></svg>